<mxfile host="www.draw.io" modified="2019-10-30T16:22:33.317Z" agent="Mozilla/5.0 (Windows NT 10.0; Win64; x64) AppleWebKit/537.36 (KHTML, like Gecko) Chrome/75.0.3770.145 Safari/537.36 Vivaldi/2.6.1566.49" etag="Hg65QoAaVCezwvNbYD4n" version="12.1.8" type="github" pages="1">
  <diagram name="Page-1" id="13e1069c-82ec-6db2-03f1-153e76fe0fe0">
    <mxGraphModel dx="1372" dy="827" grid="1" gridSize="10" guides="1" tooltips="1" connect="1" arrows="1" fold="1" page="1" pageScale="1" pageWidth="1100" pageHeight="850" background="#ffffff" math="0" shadow="0">
      <root>
        <mxCell id="0"/>
        <mxCell id="1" parent="0"/>
        <mxCell id="7baba1c4bc27f4b0-4" value="API Controller : ASP.NET Core" style="shape=umlLifeline;perimeter=lifelinePerimeter;whiteSpace=wrap;html=1;container=1;collapsible=0;recursiveResize=0;outlineConnect=0;rounded=1;shadow=0;comic=0;labelBackgroundColor=none;strokeColor=#000000;strokeWidth=1;fillColor=#FFFFFF;fontFamily=Verdana;fontSize=12;fontColor=#000000;align=center;size=80;" parent="1" vertex="1">
          <mxGeometry x="540" y="40" width="100" height="620" as="geometry"/>
        </mxCell>
        <mxCell id="7baba1c4bc27f4b0-5" value="Abstractions : .NET Standard" style="shape=umlLifeline;perimeter=lifelinePerimeter;whiteSpace=wrap;html=1;container=1;collapsible=0;recursiveResize=0;outlineConnect=0;rounded=1;shadow=0;comic=0;labelBackgroundColor=none;strokeColor=#000000;strokeWidth=1;fillColor=#FFFFFF;fontFamily=Verdana;fontSize=12;fontColor=#000000;align=center;size=80;" parent="1" vertex="1">
          <mxGeometry x="680" y="40" width="100" height="620" as="geometry"/>
        </mxCell>
        <mxCell id="7baba1c4bc27f4b0-6" value="Entity Framework Core: Persistance Abstraction" style="shape=umlLifeline;perimeter=lifelinePerimeter;whiteSpace=wrap;html=1;container=1;collapsible=0;recursiveResize=0;outlineConnect=0;rounded=1;shadow=0;comic=0;labelBackgroundColor=none;strokeColor=#000000;strokeWidth=1;fillColor=#FFFFFF;fontFamily=Verdana;fontSize=12;fontColor=#000000;align=center;size=80;" parent="1" vertex="1">
          <mxGeometry x="820" y="40" width="100" height="620" as="geometry"/>
        </mxCell>
        <mxCell id="7baba1c4bc27f4b0-7" value="SQL Server : Database" style="shape=umlLifeline;perimeter=lifelinePerimeter;whiteSpace=wrap;html=1;container=1;collapsible=0;recursiveResize=0;outlineConnect=0;rounded=1;shadow=0;comic=0;labelBackgroundColor=none;strokeColor=#000000;strokeWidth=1;fillColor=#FFFFFF;fontFamily=Verdana;fontSize=12;fontColor=#000000;align=center;size=80;" parent="1" vertex="1">
          <mxGeometry x="960" y="40" width="100" height="620" as="geometry"/>
        </mxCell>
        <mxCell id="GbbE25WO5oA3L3Y_lrUY-3" value="createAccount" style="html=1;verticalAlign=bottom;endArrow=block;" edge="1" parent="1">
          <mxGeometry width="80" relative="1" as="geometry">
            <mxPoint x="450" y="140" as="sourcePoint"/>
            <mxPoint x="590" y="140" as="targetPoint"/>
          </mxGeometry>
        </mxCell>
        <mxCell id="GbbE25WO5oA3L3Y_lrUY-4" value="register(name, email, phone,&lt;br&gt;password)" style="html=1;verticalAlign=bottom;endArrow=block;exitX=0.5;exitY=0.194;exitDx=0;exitDy=0;exitPerimeter=0;" edge="1" parent="1" source="7baba1c4bc27f4b0-4" target="7baba1c4bc27f4b0-6">
          <mxGeometry width="80" relative="1" as="geometry">
            <mxPoint x="590" y="168" as="sourcePoint"/>
            <mxPoint x="729.5" y="168" as="targetPoint"/>
          </mxGeometry>
        </mxCell>
        <mxCell id="GbbE25WO5oA3L3Y_lrUY-6" value="usermanager.create(&lt;br&gt;landlord, password)" style="html=1;verticalAlign=bottom;endArrow=block;" edge="1" parent="1">
          <mxGeometry width="80" relative="1" as="geometry">
            <mxPoint x="870" y="179" as="sourcePoint"/>
            <mxPoint x="1009.5" y="179" as="targetPoint"/>
          </mxGeometry>
        </mxCell>
        <mxCell id="GbbE25WO5oA3L3Y_lrUY-7" value="IdentityResult" style="html=1;verticalAlign=bottom;endArrow=open;dashed=1;endSize=8;exitX=0.495;exitY=0.323;exitDx=0;exitDy=0;exitPerimeter=0;" edge="1" parent="1">
          <mxGeometry relative="1" as="geometry">
            <mxPoint x="1010" y="219.76" as="sourcePoint"/>
            <mxPoint x="870" y="219.76" as="targetPoint"/>
          </mxGeometry>
        </mxCell>
        <mxCell id="GbbE25WO5oA3L3Y_lrUY-8" value="usermanager.addtoRole&lt;br&gt;landlord)" style="html=1;verticalAlign=bottom;endArrow=block;" edge="1" parent="1">
          <mxGeometry width="80" relative="1" as="geometry">
            <mxPoint x="870.5" y="260" as="sourcePoint"/>
            <mxPoint x="1010" y="260" as="targetPoint"/>
          </mxGeometry>
        </mxCell>
        <mxCell id="GbbE25WO5oA3L3Y_lrUY-9" value="IdentityResult" style="html=1;verticalAlign=bottom;endArrow=open;dashed=1;endSize=8;exitX=0.495;exitY=0.323;exitDx=0;exitDy=0;exitPerimeter=0;" edge="1" parent="1" target="7baba1c4bc27f4b0-4">
          <mxGeometry relative="1" as="geometry">
            <mxPoint x="1010" y="299.76" as="sourcePoint"/>
            <mxPoint x="870" y="299.76" as="targetPoint"/>
          </mxGeometry>
        </mxCell>
        <mxCell id="GbbE25WO5oA3L3Y_lrUY-11" value="Signin(email, password)" style="html=1;verticalAlign=bottom;endArrow=block;" edge="1" parent="1" target="7baba1c4bc27f4b0-6">
          <mxGeometry width="80" relative="1" as="geometry">
            <mxPoint x="590" y="340.5" as="sourcePoint"/>
            <mxPoint x="870" y="340.22" as="targetPoint"/>
          </mxGeometry>
        </mxCell>
        <mxCell id="GbbE25WO5oA3L3Y_lrUY-12" value="signinManager.&lt;br&gt;PasswordSignIn(&lt;br&gt;username, password)" style="html=1;verticalAlign=bottom;endArrow=block;" edge="1" parent="1">
          <mxGeometry width="80" relative="1" as="geometry">
            <mxPoint x="870.5" y="360" as="sourcePoint"/>
            <mxPoint x="1010" y="360" as="targetPoint"/>
          </mxGeometry>
        </mxCell>
        <mxCell id="GbbE25WO5oA3L3Y_lrUY-13" value="ApplicationUser" style="html=1;verticalAlign=bottom;endArrow=open;dashed=1;endSize=8;exitX=0.495;exitY=0.323;exitDx=0;exitDy=0;exitPerimeter=0;" edge="1" parent="1">
          <mxGeometry relative="1" as="geometry">
            <mxPoint x="1010" y="399.76" as="sourcePoint"/>
            <mxPoint x="870" y="399.76" as="targetPoint"/>
          </mxGeometry>
        </mxCell>
        <mxCell id="GbbE25WO5oA3L3Y_lrUY-14" value="ApplicationUser" style="html=1;verticalAlign=bottom;endArrow=open;dashed=1;endSize=8;" edge="1" parent="1" target="7baba1c4bc27f4b0-4">
          <mxGeometry relative="1" as="geometry">
            <mxPoint x="870" y="420" as="sourcePoint"/>
            <mxPoint x="730" y="423.76" as="targetPoint"/>
          </mxGeometry>
        </mxCell>
        <mxCell id="GbbE25WO5oA3L3Y_lrUY-15" value="User" style="html=1;verticalAlign=bottom;endArrow=open;dashed=1;endSize=8;exitX=0.495;exitY=0.323;exitDx=0;exitDy=0;exitPerimeter=0;" edge="1" parent="1">
          <mxGeometry relative="1" as="geometry">
            <mxPoint x="590" y="439.76" as="sourcePoint"/>
            <mxPoint x="450" y="439.76" as="targetPoint"/>
          </mxGeometry>
        </mxCell>
      </root>
    </mxGraphModel>
  </diagram>
</mxfile>
